<svg xmlns="http://www.w3.org/2000/svg" viewBox="0 0 940 560" width="940" height="560" role="img" aria-label="Mimic wiring map"><rect width="940" height="560" fill="none"/><rect x="390" y="66" width="160" height="452" rx="12" fill="#16181A"/><rect x="396" y="72" width="148" height="440" rx="8" fill="none" stroke="#2E3337" stroke-width="2"/><rect x="428" y="57" width="84" height="18" rx="4" fill="#2E3337"/><text x="470.0" y="96" font-family="ui-monospace, 'IBM Plex Mono', 'SFMono-Regular', Menlo, Consolas, monospace" font-size="14" fill="#E7E9E6" text-anchor="middle" font-weight="700" letter-spacing="1.5">PICO W</text><text x="470.0" y="502" font-family="ui-monospace, 'IBM Plex Mono', 'SFMono-Regular', Menlo, Consolas, monospace" font-size="11" fill="#5B6166" text-anchor="middle" font-weight="400" letter-spacing="1">USB</text><rect x="382" y="137" width="8" height="14" rx="2" fill="#D8B55A"/><rect x="550" y="137" width="8" height="14" rx="2" fill="#D8B55A"/><text x="470.0" y="143" font-family="ui-monospace, 'IBM Plex Mono', 'SFMono-Regular', Menlo, Consolas, monospace" font-size="13" fill="#E7E9E6" text-anchor="middle" font-weight="600" letter-spacing="0">GP0</text><text x="470.0" y="157" font-family="ui-monospace, 'IBM Plex Mono', 'SFMono-Regular', Menlo, Consolas, monospace" font-size="10" fill="#7C8489" text-anchor="middle" font-weight="400" letter-spacing="0">pin 1</text><rect x="382" y="183" width="8" height="14" rx="2" fill="#D8B55A"/><rect x="550" y="183" width="8" height="14" rx="2" fill="#D8B55A"/><text x="470.0" y="189" font-family="ui-monospace, 'IBM Plex Mono', 'SFMono-Regular', Menlo, Consolas, monospace" font-size="13" fill="#E7E9E6" text-anchor="middle" font-weight="600" letter-spacing="0">GP1</text><text x="470.0" y="203" font-family="ui-monospace, 'IBM Plex Mono', 'SFMono-Regular', Menlo, Consolas, monospace" font-size="10" fill="#7C8489" text-anchor="middle" font-weight="400" letter-spacing="0">pin 2</text><rect x="382" y="229" width="8" height="14" rx="2" fill="#D8B55A"/><rect x="550" y="229" width="8" height="14" rx="2" fill="#D8B55A"/><text x="470.0" y="235" font-family="ui-monospace, 'IBM Plex Mono', 'SFMono-Regular', Menlo, Consolas, monospace" font-size="13" fill="#E7E9E6" text-anchor="middle" font-weight="600" letter-spacing="0">GND</text><text x="470.0" y="249" font-family="ui-monospace, 'IBM Plex Mono', 'SFMono-Regular', Menlo, Consolas, monospace" font-size="10" fill="#7C8489" text-anchor="middle" font-weight="400" letter-spacing="0">pin 3</text><rect x="382" y="275" width="8" height="14" rx="2" fill="#D8B55A"/><rect x="550" y="275" width="8" height="14" rx="2" fill="#D8B55A"/><text x="470.0" y="281" font-family="ui-monospace, 'IBM Plex Mono', 'SFMono-Regular', Menlo, Consolas, monospace" font-size="13" fill="#E7E9E6" text-anchor="middle" font-weight="600" letter-spacing="0">3V3</text><text x="470.0" y="295" font-family="ui-monospace, 'IBM Plex Mono', 'SFMono-Regular', Menlo, Consolas, monospace" font-size="10" fill="#7C8489" text-anchor="middle" font-weight="400" letter-spacing="0">pin 36</text><rect x="382" y="321" width="8" height="14" rx="2" fill="#D8B55A"/><rect x="550" y="321" width="8" height="14" rx="2" fill="#D8B55A"/><text x="470.0" y="327" font-family="ui-monospace, 'IBM Plex Mono', 'SFMono-Regular', Menlo, Consolas, monospace" font-size="13" fill="#E7E9E6" text-anchor="middle" font-weight="600" letter-spacing="0">GP2</text><text x="470.0" y="341" font-family="ui-monospace, 'IBM Plex Mono', 'SFMono-Regular', Menlo, Consolas, monospace" font-size="10" fill="#7C8489" text-anchor="middle" font-weight="400" letter-spacing="0">pin 4</text><rect x="382" y="367" width="8" height="14" rx="2" fill="#D8B55A"/><rect x="550" y="367" width="8" height="14" rx="2" fill="#D8B55A"/><text x="470.0" y="373" font-family="ui-monospace, 'IBM Plex Mono', 'SFMono-Regular', Menlo, Consolas, monospace" font-size="13" fill="#E7E9E6" text-anchor="middle" font-weight="600" letter-spacing="0">GP3</text><text x="470.0" y="387" font-family="ui-monospace, 'IBM Plex Mono', 'SFMono-Regular', Menlo, Consolas, monospace" font-size="10" fill="#7C8489" text-anchor="middle" font-weight="400" letter-spacing="0">pin 5</text><rect x="382" y="413" width="8" height="14" rx="2" fill="#D8B55A"/><rect x="550" y="413" width="8" height="14" rx="2" fill="#D8B55A"/><text x="470.0" y="419" font-family="ui-monospace, 'IBM Plex Mono', 'SFMono-Regular', Menlo, Consolas, monospace" font-size="13" fill="#E7E9E6" text-anchor="middle" font-weight="600" letter-spacing="0">GND</text><text x="470.0" y="433" font-family="ui-monospace, 'IBM Plex Mono', 'SFMono-Regular', Menlo, Consolas, monospace" font-size="10" fill="#7C8489" text-anchor="middle" font-weight="400" letter-spacing="0">pin 8</text><rect x="382" y="459" width="8" height="14" rx="2" fill="#D8B55A"/><rect x="550" y="459" width="8" height="14" rx="2" fill="#D8B55A"/><text x="470.0" y="465" font-family="ui-monospace, 'IBM Plex Mono', 'SFMono-Regular', Menlo, Consolas, monospace" font-size="13" fill="#E7E9E6" text-anchor="middle" font-weight="600" letter-spacing="0">GP20</text><text x="470.0" y="479" font-family="ui-monospace, 'IBM Plex Mono', 'SFMono-Regular', Menlo, Consolas, monospace" font-size="10" fill="#7C8489" text-anchor="middle" font-weight="400" letter-spacing="0">pin 26</text><rect x="70" y="92" width="200" height="172" rx="8" fill="#FFFFFF" stroke="#16181A" stroke-width="2"/><text x="84" y="116" font-family="ui-monospace, 'IBM Plex Mono', 'SFMono-Regular', Menlo, Consolas, monospace" font-size="13" fill="#16181A" text-anchor="start" font-weight="600" letter-spacing="0.6">SSD1306 OLED  128x64</text><line x1="70" y1="128" x2="270" y2="128" stroke="#C6CAC5" stroke-width="1.5"/><text x="84" y="156" font-family="ui-monospace, 'IBM Plex Mono', 'SFMono-Regular', Menlo, Consolas, monospace" font-size="12" fill="#5B6166" text-anchor="start" font-weight="400" letter-spacing="0">SDA</text><rect x="264" y="148" width="8" height="8" fill="#2E6FD9"/><text x="84" y="186" font-family="ui-monospace, 'IBM Plex Mono', 'SFMono-Regular', Menlo, Consolas, monospace" font-size="12" fill="#5B6166" text-anchor="start" font-weight="400" letter-spacing="0">SCL</text><rect x="264" y="178" width="8" height="8" fill="#E0A100"/><text x="84" y="216" font-family="ui-monospace, 'IBM Plex Mono', 'SFMono-Regular', Menlo, Consolas, monospace" font-size="12" fill="#5B6166" text-anchor="start" font-weight="400" letter-spacing="0">GND</text><rect x="264" y="208" width="8" height="8" fill="#3A3F44"/><text x="84" y="246" font-family="ui-monospace, 'IBM Plex Mono', 'SFMono-Regular', Menlo, Consolas, monospace" font-size="12" fill="#5B6166" text-anchor="start" font-weight="400" letter-spacing="0">VCC</text><rect x="264" y="238" width="8" height="8" fill="#D0342C"/><path d="M272 152 H310 V144 H382" fill="none" stroke="#2E6FD9" stroke-width="3" stroke-linecap="round" stroke-linejoin="round"/><circle cx="382" cy="144" r="3.6" fill="#2E6FD9"/><circle cx="272" cy="152" r="3.6" fill="#2E6FD9"/><path d="M272 182 H324 V190 H382" fill="none" stroke="#E0A100" stroke-width="3" stroke-linecap="round" stroke-linejoin="round"/><circle cx="382" cy="190" r="3.6" fill="#E0A100"/><circle cx="272" cy="182" r="3.6" fill="#E0A100"/><path d="M272 212 H338 V236 H382" fill="none" stroke="#3A3F44" stroke-width="3" stroke-linecap="round" stroke-linejoin="round"/><circle cx="382" cy="236" r="3.6" fill="#3A3F44"/><circle cx="272" cy="212" r="3.6" fill="#3A3F44"/><path d="M272 242 H352 V282 H382" fill="none" stroke="#D0342C" stroke-width="3" stroke-linecap="round" stroke-linejoin="round"/><circle cx="382" cy="282" r="3.6" fill="#D0342C"/><circle cx="272" cy="242" r="3.6" fill="#D0342C"/><rect x="672" y="92" width="198" height="118" rx="8" fill="#FFFFFF" stroke="#16181A" stroke-width="2"/><text x="686" y="116" font-family="ui-monospace, 'IBM Plex Mono', 'SFMono-Regular', Menlo, Consolas, monospace" font-size="13" fill="#16181A" text-anchor="start" font-weight="600" letter-spacing="0.6">BUTTON 1  tab / home</text><line x1="672" y1="128" x2="870" y2="128" stroke="#C6CAC5" stroke-width="1.5"/><text x="856" y="156" font-family="ui-monospace, 'IBM Plex Mono', 'SFMono-Regular', Menlo, Consolas, monospace" font-size="12" fill="#5B6166" text-anchor="end" font-weight="400" letter-spacing="0">leg A</text><rect x="670" y="148" width="8" height="8" fill="#2E9E5B"/><text x="856" y="186" font-family="ui-monospace, 'IBM Plex Mono', 'SFMono-Regular', Menlo, Consolas, monospace" font-size="12" fill="#5B6166" text-anchor="end" font-weight="400" letter-spacing="0">leg B</text><rect x="670" y="178" width="8" height="8" fill="#3A3F44"/><path d="M670 152 H632 V328 H558" fill="none" stroke="#2E9E5B" stroke-width="3" stroke-linecap="round" stroke-linejoin="round"/><circle cx="558" cy="328" r="3.6" fill="#2E9E5B"/><circle cx="670" cy="152" r="3.6" fill="#2E9E5B"/><path d="M670 182 H610 V420 H558" fill="none" stroke="#3A3F44" stroke-width="3" stroke-linecap="round" stroke-linejoin="round"/><circle cx="558" cy="420" r="3.6" fill="#3A3F44"/><circle cx="670" cy="182" r="3.6" fill="#3A3F44"/><rect x="672" y="232" width="198" height="118" rx="8" fill="#FFFFFF" stroke="#16181A" stroke-width="2"/><text x="686" y="256" font-family="ui-monospace, 'IBM Plex Mono', 'SFMono-Regular', Menlo, Consolas, monospace" font-size="13" fill="#16181A" text-anchor="start" font-weight="600" letter-spacing="0.6">BUTTON 2  action</text><line x1="672" y1="268" x2="870" y2="268" stroke="#C6CAC5" stroke-width="1.5"/><text x="856" y="296" font-family="ui-monospace, 'IBM Plex Mono', 'SFMono-Regular', Menlo, Consolas, monospace" font-size="12" fill="#5B6166" text-anchor="end" font-weight="400" letter-spacing="0">leg A</text><rect x="670" y="288" width="8" height="8" fill="#2E9E5B"/><text x="856" y="326" font-family="ui-monospace, 'IBM Plex Mono', 'SFMono-Regular', Menlo, Consolas, monospace" font-size="12" fill="#5B6166" text-anchor="end" font-weight="400" letter-spacing="0">leg B</text><rect x="670" y="318" width="8" height="8" fill="#3A3F44"/><path d="M670 292 H610 V374 H558" fill="none" stroke="#2E9E5B" stroke-width="3" stroke-linecap="round" stroke-linejoin="round"/><circle cx="558" cy="374" r="3.6" fill="#2E9E5B"/><circle cx="670" cy="292" r="3.6" fill="#2E9E5B"/><path d="M670 322 H586 V420 H558" fill="none" stroke="#3A3F44" stroke-width="3" stroke-linecap="round" stroke-linejoin="round"/><circle cx="558" cy="420" r="3.6" fill="#3A3F44"/><circle cx="670" cy="322" r="3.6" fill="#3A3F44"/><rect x="672" y="372" width="198" height="148" rx="8" fill="#FFFFFF" stroke="#16181A" stroke-width="2"/><text x="686" y="396" font-family="ui-monospace, 'IBM Plex Mono', 'SFMono-Regular', Menlo, Consolas, monospace" font-size="13" fill="#16181A" text-anchor="start" font-weight="600" letter-spacing="0.6">PASSIVE BUZZER</text><line x1="672" y1="408" x2="870" y2="408" stroke="#C6CAC5" stroke-width="1.5"/><text x="856" y="436" font-family="ui-monospace, 'IBM Plex Mono', 'SFMono-Regular', Menlo, Consolas, monospace" font-size="12" fill="#5B6166" text-anchor="end" font-weight="400" letter-spacing="0">SIG</text><rect x="670" y="428" width="8" height="8" fill="#7A4FC0"/><text x="856" y="466" font-family="ui-monospace, 'IBM Plex Mono', 'SFMono-Regular', Menlo, Consolas, monospace" font-size="12" fill="#5B6166" text-anchor="end" font-weight="400" letter-spacing="0">VCC</text><rect x="670" y="458" width="8" height="8" fill="#D0342C"/><text x="856" y="496" font-family="ui-monospace, 'IBM Plex Mono', 'SFMono-Regular', Menlo, Consolas, monospace" font-size="12" fill="#5B6166" text-anchor="end" font-weight="400" letter-spacing="0">GND</text><rect x="670" y="488" width="8" height="8" fill="#3A3F44"/><path d="M670 432 H546 V466 H558" fill="none" stroke="#7A4FC0" stroke-width="3" stroke-linecap="round" stroke-linejoin="round"/><circle cx="558" cy="466" r="3.6" fill="#7A4FC0"/><circle cx="670" cy="432" r="3.6" fill="#7A4FC0"/><path d="M670 462 H570 V282 H558" fill="none" stroke="#D0342C" stroke-width="3" stroke-linecap="round" stroke-linejoin="round"/><circle cx="558" cy="282" r="3.6" fill="#D0342C"/><circle cx="670" cy="462" r="3.6" fill="#D0342C"/><path d="M670 492 H552 V420 H558" fill="none" stroke="#3A3F44" stroke-width="3" stroke-linecap="round" stroke-linejoin="round"/><circle cx="558" cy="420" r="3.6" fill="#3A3F44"/><circle cx="670" cy="492" r="3.6" fill="#3A3F44"/><text x="70" y="300" font-family="ui-monospace, 'IBM Plex Mono', 'SFMono-Regular', Menlo, Consolas, monospace" font-size="12" fill="#5B6166" text-anchor="start" font-weight="400" letter-spacing="0">Every wire is female-to-male Dupont;</text><text x="70" y="320" font-family="ui-monospace, 'IBM Plex Mono', 'SFMono-Regular', Menlo, Consolas, monospace" font-size="12" fill="#5B6166" text-anchor="start" font-weight="400" letter-spacing="0">buttons connect one leg to a GPIO pin</text><text x="70" y="340" font-family="ui-monospace, 'IBM Plex Mono', 'SFMono-Regular', Menlo, Consolas, monospace" font-size="12" fill="#5B6166" text-anchor="start" font-weight="400" letter-spacing="0">and the other to any ground pin.</text><text x="70" y="392" font-family="ui-monospace, 'IBM Plex Mono', 'SFMono-Regular', Menlo, Consolas, monospace" font-size="11" fill="#16181A" text-anchor="start" font-weight="700" letter-spacing="1.4">WIRE COLOURS</text><rect x="70" y="408" width="22" height="4" rx="2" fill="#D0342C"/><text x="102" y="413" font-family="ui-monospace, 'IBM Plex Mono', 'SFMono-Regular', Menlo, Consolas, monospace" font-size="12" fill="#5B6166" text-anchor="start" font-weight="400" letter-spacing="0">3V3 power</text><rect x="70" y="430" width="22" height="4" rx="2" fill="#3A3F44"/><text x="102" y="435" font-family="ui-monospace, 'IBM Plex Mono', 'SFMono-Regular', Menlo, Consolas, monospace" font-size="12" fill="#5B6166" text-anchor="start" font-weight="400" letter-spacing="0">Ground</text><rect x="70" y="452" width="22" height="4" rx="2" fill="#2E6FD9"/><text x="102" y="457" font-family="ui-monospace, 'IBM Plex Mono', 'SFMono-Regular', Menlo, Consolas, monospace" font-size="12" fill="#5B6166" text-anchor="start" font-weight="400" letter-spacing="0">I2C data</text><rect x="70" y="474" width="22" height="4" rx="2" fill="#E0A100"/><text x="102" y="479" font-family="ui-monospace, 'IBM Plex Mono', 'SFMono-Regular', Menlo, Consolas, monospace" font-size="12" fill="#5B6166" text-anchor="start" font-weight="400" letter-spacing="0">I2C clock</text><rect x="70" y="496" width="22" height="4" rx="2" fill="#2E9E5B"/><text x="102" y="501" font-family="ui-monospace, 'IBM Plex Mono', 'SFMono-Regular', Menlo, Consolas, monospace" font-size="12" fill="#5B6166" text-anchor="start" font-weight="400" letter-spacing="0">Button input</text><rect x="70" y="518" width="22" height="4" rx="2" fill="#7A4FC0"/><text x="102" y="523" font-family="ui-monospace, 'IBM Plex Mono', 'SFMono-Regular', Menlo, Consolas, monospace" font-size="12" fill="#5B6166" text-anchor="start" font-weight="400" letter-spacing="0">Buzzer signal</text></svg>